<?xml version="1.0" standalone="no"?>
<!DOCTYPE svg PUBLIC "-//W3C//DTD SVG 20010904//EN"
 "http://www.w3.org/TR/2001/REC-SVG-20010904/DTD/svg10.dtd">
<svg version="1.0" xmlns="http://www.w3.org/2000/svg"
 width="207.000000pt" height="78.000000pt" viewBox="0 0 207.000000 78.000000"
 preserveAspectRatio="xMidYMid meet">
<metadata>
Created by potrace 1.16, written by Peter Selinger 2001-2019
</metadata>
<g transform="translate(0.000000,78.000000) scale(0.100000,-0.100000)"
fill="#000000" stroke="none">
<path d="M0 405 l0 -375 305 0 305 0 0 375 0 375 -305 0 -305 0 0 -375z m248
259 c16 -5 22 -14 22 -35 0 -19 5 -29 15 -29 9 0 15 9 15 25 0 27 10 31 41 15
16 -9 19 -22 19 -74 0 -39 -5 -67 -12 -73 -17 -13 -108 -4 -108 11 0 7 -3 6
-9 -2 -12 -20 -13 -139 -1 -147 5 -3 10 -29 10 -57 0 -44 -2 -49 -17 -42 -10
4 -40 9 -68 10 l-50 3 46 -9 c25 -4 60 -15 78 -24 34 -18 82 -23 121 -12 l25
7 -24 -20 c-30 -27 -95 -27 -152 -1 -53 23 -88 25 -134 6 -44 -19 -45 -5 -2
23 17 11 26 21 20 21 -19 0 -17 75 2 90 20 17 20 128 0 154 -9 12 -15 42 -15
71 0 46 3 53 25 63 38 17 45 15 45 -14 0 -34 24 -26 28 9 2 17 10 27 25 30 12
2 24 5 27 6 3 0 15 -2 28 -5z"/>
<path d="M1407 362 c-21 -23 -22 -86 -1 -106 8 -9 27 -16 41 -16 36 0 23 -24
-15 -28 -42 -4 -41 -22 1 -22 54 0 61 11 65 96 3 57 1 79 -9 85 -23 15 -65 10
-82 -9z"/>
</g>
</svg>
