<svg version="1.1" id="Layer_1" xmlns="http://www.w3.org/2000/svg" xmlns:xlink="http://www.w3.org/1999/xlink" x="0px" y="0px"
	 width="100%" viewBox="0 0 212 102" enable-background="new 0 0 212 102" xml:space="preserve">
<path fill="#DA3029" opacity="1.000000" stroke="none" 
	d="
M107.000000,1.000000 
	C142.284058,1.000000 177.568100,1.000000 212.926086,1.000000 
	C212.926086,34.903164 212.926086,68.806526 212.926086,103.000000 
	C177.979645,103.000000 142.958481,103.000000 107.523972,102.533997 
	C107.073746,68.378662 107.036873,34.689331 107.000000,1.000000 
M163.437225,41.064255 
	C163.437225,41.064255 163.888672,41.142666 164.041458,41.831352 
	C164.740921,42.443138 165.755280,43.724743 166.092575,43.566162 
	C171.091705,41.215981 177.344788,45.323608 181.890030,40.499401 
	C182.232635,40.135777 183.712570,40.843693 184.986343,41.308441 
	C184.986343,41.308441 185.206131,41.655407 185.408966,42.270840 
	C186.304581,42.137463 187.200211,42.004089 188.712128,41.959881 
	C189.124054,41.926006 189.535965,41.892132 190.088501,42.530491 
	C190.696136,42.463375 191.824753,42.436317 191.833450,42.323154 
	C191.970367,40.542351 191.912903,38.748039 191.999161,36.961617 
	C192.196152,32.881969 190.438904,32.032932 186.970535,33.926067 
	C186.970535,33.926067 186.987656,33.998383 186.327240,34.151257 
	C186.049301,34.756062 185.771378,35.360867 184.810959,35.946671 
	C182.289688,35.043507 180.003281,34.055252 177.098007,33.673988 
	C169.425583,32.667137 169.385574,32.038998 167.469070,39.199886 
	C167.441589,39.302574 166.906815,39.269489 166.607590,39.287830 
	C165.121048,33.299545 165.121048,33.299545 160.202362,33.980690 
	C158.611938,35.372227 157.021500,36.763763 155.431076,38.155300 
	C155.648956,38.532623 155.866837,38.909946 156.084732,39.287266 
	C154.862671,39.006790 153.640625,38.726315 152.418579,38.445843 
	C152.339890,38.916336 152.261185,39.386833 152.182495,39.857327 
	C155.900833,38.386181 157.795578,45.363987 162.560760,41.000107 
	C162.560760,41.000107 162.983063,41.003422 163.437225,41.064255 
M185.927856,69.566742 
	C185.927856,69.566742 186.008743,69.968498 186.130447,70.670654 
	C189.254257,73.919380 192.061157,73.428551 194.094025,70.236572 
	C195.304535,70.846039 196.210602,71.302216 197.116653,71.758392 
	C198.415253,68.958588 199.713837,66.158791 201.208344,62.936615 
	C199.641235,62.695663 198.886871,62.459850 198.141296,62.484989 
	C194.093002,62.621513 190.046875,62.822456 185.269852,62.682262 
	C180.233276,61.020588 175.974075,62.005882 172.691986,67.262596 
	C172.132614,65.065804 171.783493,63.694763 171.373016,62.082695 
	C169.716156,62.444374 168.293640,62.754898 166.090576,62.984215 
	C164.137497,63.369438 162.184433,63.754658 159.709396,63.816761 
	C157.510986,63.837860 155.312576,63.858959 152.873230,63.180248 
	C151.399872,62.830582 149.942276,62.309338 148.449387,62.172222 
	C146.311020,61.975822 144.146881,62.059967 141.495316,62.011719 
	C141.495316,62.011719 140.996582,62.011742 140.382782,61.739223 
	C138.924530,61.827942 137.466263,61.916660 135.249847,62.002766 
	C134.491226,62.020218 133.732620,62.037674 132.299973,62.105282 
	C128.712219,62.620167 125.124458,63.135052 120.906204,63.740421 
	C121.956047,66.061203 122.905579,68.190994 123.924385,70.287117 
	C123.960777,70.361992 124.681709,70.104149 125.737259,70.121216 
	C127.489403,70.756065 129.241547,71.390915 131.746552,72.008278 
	C132.499649,72.005493 133.252731,72.002716 134.561905,72.558037 
	C138.709656,72.370201 142.857422,72.182358 147.811188,71.998154 
	C149.874130,71.320198 151.937057,70.642242 154.704971,70.065849 
	C158.471558,71.245415 162.239151,73.548553 166.640854,70.064201 
	C167.430038,70.371513 168.219223,70.678825 169.352173,71.625679 
	C173.724228,71.533676 178.097977,71.474823 182.463272,71.250900 
	C182.679626,71.239799 182.822296,69.791725 183.575653,68.765602 
	C183.786301,68.183151 183.996948,67.600693 184.475433,67.020653 
	C184.475433,67.020653 184.743256,67.021133 184.903198,67.622017 
	C185.230957,68.134354 185.558716,68.646690 185.927856,69.566742 
M141.551514,39.788952 
	C141.768250,39.513969 141.984970,39.238987 142.770264,39.050415 
	C143.458954,39.376717 144.147659,39.703018 144.972321,40.646748 
	C145.312607,41.070786 145.652893,41.494820 146.490311,41.960175 
	C146.490311,41.960175 146.984528,41.892475 147.494339,41.923344 
	C147.664581,41.923660 147.834839,41.923981 148.718979,41.646198 
	C149.144043,39.776878 149.569107,37.907558 150.147598,36.652771 
	C150.661850,37.029686 151.176102,37.406597 151.690353,37.783512 
	C152.052338,37.374542 152.414322,36.965572 152.776291,36.556602 
	C151.853897,36.034763 150.931488,35.512924 149.741455,34.422192 
	C149.157471,34.282375 148.573471,34.142559 147.666153,33.541779 
	C147.140228,33.376015 146.614304,33.210255 145.489059,33.045185 
	C144.813980,33.696449 144.138885,34.347713 142.623901,34.812489 
	C142.341095,34.857750 142.058289,34.903015 141.114777,34.988014 
	C140.455826,34.984203 139.796875,34.980389 138.868149,34.487865 
	C138.570099,34.185623 138.272064,33.883381 137.974014,33.581135 
	C137.691727,34.064129 137.409454,34.547123 136.432587,34.922749 
	C133.664108,34.414162 130.895630,33.905571 126.852394,33.162807 
	C127.252960,35.713764 127.030975,38.320068 128.145081,40.081078 
	C128.986298,41.410728 131.486389,42.053391 133.338425,42.287350 
	C135.550354,42.566772 137.858475,42.084568 140.666840,41.712296 
	C140.803436,41.148357 140.940033,40.584423 141.551514,39.788952 
M197.314636,54.724754 
	C198.872360,57.158718 200.415390,56.346668 201.088104,54.289459 
	C201.838318,51.995205 201.892502,49.473351 202.249634,47.050564 
	C200.395691,47.057514 198.531189,46.944515 196.690857,47.106339 
	C194.972397,47.257439 193.000565,47.261330 191.644394,48.123257 
	C189.850647,49.263271 187.400558,51.075577 187.252396,52.775040 
	C186.834549,57.567417 190.371002,58.153629 194.340820,57.633335 
	C194.868790,56.505264 195.425003,55.316841 196.511826,54.095978 
	C196.685471,54.131302 196.859116,54.166626 197.314636,54.724754 
M135.797348,51.029617 
	C137.169174,52.040257 138.545395,53.045036 139.911224,54.063709 
	C140.749329,54.688797 141.514786,55.780769 142.410751,55.894920 
	C146.305099,56.391125 150.235397,56.605217 154.674026,56.909542 
	C155.019928,56.879753 155.365814,56.849960 156.600525,56.925297 
	C160.126373,55.931179 163.634995,54.867821 167.188354,53.984402 
	C168.279205,53.713200 169.652573,53.582996 170.609543,54.018684 
	C171.827774,54.573322 172.754333,55.768600 173.806641,56.687698 
	C174.205261,55.186226 174.677917,53.699276 174.976395,52.178150 
	C175.174820,51.166943 175.124344,50.106895 175.185257,49.068703 
	C175.557770,49.008862 175.930267,48.949020 176.302765,48.889179 
	C177.203888,51.707249 178.104996,54.525318 179.006119,57.343391 
	C179.394821,57.459267 179.783524,57.575146 180.172211,57.691021 
	C180.913864,55.925629 181.831757,54.208641 182.334625,52.377670 
	C182.664597,51.176247 182.751312,48.826874 182.336090,48.676311 
	C179.509598,47.651421 176.511856,46.447422 173.586472,46.489483 
	C168.352341,46.564739 163.130234,47.477749 157.457687,47.949596 
	C157.457687,47.949596 157.026031,47.805748 156.370056,47.329041 
	C154.571426,47.219303 152.713348,46.765438 150.985275,47.064007 
	C145.686417,47.979523 140.627579,50.704548 134.528229,48.777279 
	C133.444199,50.372501 132.360168,51.967728 131.008453,53.956882 
	C132.156845,54.649998 133.377289,55.386608 135.041992,56.391354 
	C135.041992,54.238197 135.041992,52.636307 135.797348,51.029617 
z"/>
<path fill="#040404" opacity="1.000000" stroke="none" 
	d="
M106.531342,1.000000 
	C107.036873,34.689331 107.073746,68.378662 107.055313,102.533997 
	C71.715950,103.000000 36.431896,103.000000 1.073922,103.000000 
	C1.073922,69.096840 1.073922,35.193474 1.073922,1.000000 
	C36.020359,1.000000 71.041519,1.000000 106.531342,1.000000 
M70.734985,53.402176 
	C75.876099,57.783562 77.831963,65.493416 85.171440,67.514404 
	C81.830849,62.699257 78.490257,57.884106 75.897530,53.142876 
	C80.342712,52.127445 81.869118,49.098423 80.898766,44.985672 
	C79.940346,40.923431 74.875687,39.756363 67.108047,41.465389 
	C67.108047,49.392605 67.066887,57.325710 67.166489,65.257050 
	C67.177437,66.129044 67.995651,66.990913 68.439453,67.857475 
	C69.037300,66.967445 70.115379,66.095650 70.149971,65.184250 
	C70.300583,61.216640 70.147522,57.237503 70.734985,53.402176 
M31.248327,22.278793 
	C32.956936,26.754013 34.665546,31.229235 36.692913,36.539349 
	C39.057701,30.182671 41.168968,24.507477 43.645866,17.849442 
	C46.140427,24.319761 48.287815,29.889585 50.788700,36.376297 
	C54.284939,26.775465 57.467453,18.036148 60.649967,9.296831 
	C60.135174,9.048697 59.620384,8.800565 59.105591,8.552432 
	C55.050076,14.261024 54.489094,21.723576 50.918491,28.624596 
	C48.447826,21.746008 46.229004,15.568582 43.921410,9.144011 
	C42.923569,9.144011 41.646725,9.144011 40.260349,9.144011 
	C44.777710,16.605690 38.662277,21.659138 36.934902,27.686907 
	C34.491676,22.299303 32.778816,16.931936 30.694271,11.713032 
	C30.164570,10.386866 28.453230,9.532673 27.284832,8.461617 
	C27.023842,8.784609 26.762850,9.107601 26.501860,9.430593 
	C28.005085,13.464834 29.508310,17.499077 31.248327,22.278793 
M69.060371,32.312397 
	C69.479332,33.624592 69.898293,34.936787 70.317253,36.248981 
	C70.881065,36.088200 71.444885,35.927418 72.008698,35.766640 
	C72.008698,28.624634 72.008698,21.482630 72.008698,13.519128 
	C79.304520,21.485468 86.011780,28.809156 93.558678,37.049644 
	C93.558678,27.205816 93.593414,18.792645 93.478188,10.381524 
	C93.470749,9.837791 92.307808,9.309888 90.745567,7.972871 
	C90.745567,16.001993 90.745567,22.652895 90.745567,29.949455 
	C84.936523,23.350115 79.742401,17.303318 74.351334,11.437515 
	C73.149292,10.129622 71.255020,9.457928 69.062088,8.115354 
	C69.062088,16.734137 69.062088,24.040644 69.060371,32.312397 
M51.801125,85.439041 
	C51.801125,87.847046 51.801125,90.255043 51.801125,93.343513 
	C43.586880,86.491310 39.101208,77.191093 30.533224,71.790779 
	C30.533224,81.633873 30.533224,90.585327 30.533224,99.536789 
	C31.026287,99.527489 31.519350,99.518188 32.012413,99.508896 
	C32.012413,92.096573 32.012413,84.684258 32.012413,76.253662 
	C39.665302,84.656639 46.497700,92.158699 53.525810,99.875648 
	C53.525810,90.378143 53.525810,81.453354 53.525810,72.528564 
	C52.950855,72.492851 52.375904,72.457146 51.800949,72.421432 
	C51.800949,76.441811 51.800949,80.462189 51.801125,85.439041 
M75.985199,97.278847 
	C72.075790,97.278847 68.166382,97.278847 64.191544,97.278847 
	C64.191544,92.847343 64.191544,89.237915 64.191544,85.276756 
	C67.565063,85.276756 70.723755,85.276756 73.882439,85.276756 
	C73.950958,84.727127 74.019478,84.177505 74.087990,83.627876 
	C70.666489,83.287048 67.244987,82.946213 64.039536,82.626907 
	C64.039536,79.871689 64.039536,77.445160 64.039536,74.542877 
	C67.530334,74.542877 70.711372,74.542877 73.892403,74.542877 
	C73.909996,74.083046 73.927589,73.623207 73.945175,73.163376 
	C69.528496,73.163376 65.111816,73.163376 60.580353,73.163376 
	C60.580353,81.664467 60.580353,90.540367 60.580353,99.718315 
	C63.387848,99.718315 65.883942,99.916168 68.333809,99.664314 
	C70.939621,99.396439 73.501648,98.702530 75.985199,97.278847 
M30.396194,41.560284 
	C27.027243,41.220306 23.658291,40.880325 20.301537,40.541576 
	C20.301537,50.066525 20.301537,58.913193 20.301537,67.919975 
	C25.964130,67.563889 32.087612,69.337646 35.074200,62.914333 
	C37.209259,58.322411 34.620831,55.049599 30.766113,52.651661 
	C34.986729,48.368477 35.010578,46.660248 30.396194,41.560284 
M43.010662,56.181221 
	C43.010963,41.672043 43.010963,41.672043 40.058453,40.943539 
	C40.058453,47.153698 39.789272,53.291180 40.139519,59.393105 
	C40.446339,64.738464 44.700661,67.971893 50.512577,68.008507 
	C56.299828,68.044968 60.430294,64.856964 60.824890,59.383659 
	C61.207230,54.080322 61.055115,48.729767 60.917919,43.405617 
	C60.892990,42.438290 59.809353,41.498253 59.214462,40.545620 
	C58.805599,40.777515 58.396732,41.009415 57.987869,41.241314 
	C57.987869,46.528038 58.066616,51.816261 57.966312,57.101082 
	C57.860344,62.684460 55.068314,65.849274 50.517990,65.804848 
	C46.049255,65.761215 43.414700,62.704277 43.010662,56.181221 
M20.075661,21.478458 
	C18.064476,20.304907 15.771349,19.427956 14.128806,17.866594 
	C12.744766,16.550962 10.914909,13.844461 11.424887,12.815617 
	C12.269784,11.111092 14.698936,9.763671 16.720421,9.203843 
	C18.385567,8.742700 20.427227,9.641109 22.302027,9.937003 
	C22.414925,9.397379 22.527822,8.857756 22.640720,8.318132 
	C20.379833,7.919540 18.093056,7.087759 15.863951,7.220980 
	C12.262541,7.436215 8.860237,8.673416 7.933094,12.785036 
	C7.065438,16.632841 9.211640,19.083183 12.335041,20.890011 
	C14.350897,22.056145 16.735281,22.876631 18.270777,24.499098 
	C19.781528,26.095421 21.603645,28.849810 21.132816,30.469051 
	C20.640574,32.161938 17.715420,33.768669 15.604215,34.204666 
	C13.224630,34.696083 10.566616,33.839268 7.435070,33.505478 
	C8.841559,37.284248 12.003960,36.583454 14.353149,36.506546 
	C18.481340,36.371399 23.118160,36.222763 24.805117,31.404854 
	C26.238684,27.310621 24.800680,23.875622 20.075661,21.478458 
M61.826530,29.454769 
	C61.826530,31.621134 61.826530,33.787498 61.826530,35.953865 
	C62.320099,35.940960 62.813663,35.928059 63.307232,35.915157 
	C63.307232,29.638281 63.307232,23.361404 63.307232,17.084528 
	C62.813637,17.067795 62.320042,17.051064 61.826447,17.034330 
	C61.826447,20.845160 61.826447,24.655987 61.826530,29.454769 
M89.941574,82.527916 
	C89.390182,82.668655 88.721146,83.075951 88.311661,82.895195 
	C87.432991,82.507347 86.688232,81.816116 85.888634,81.249100 
	C85.597260,81.785927 84.929977,82.510429 85.086388,82.823708 
	C85.521408,83.695045 86.149796,84.721313 86.971245,85.096558 
	C88.748611,85.908478 90.694130,86.352303 92.570869,86.946686 
	C92.771172,86.614830 92.971481,86.282974 93.171783,85.951118 
	C92.347656,84.807785 91.523521,83.664452 89.941574,82.527916 
z"/>
<path fill="#CD3B37" opacity="1.000000" stroke="none" 
	d="
M157.903107,48.040558 
	C163.130234,47.477749 168.352341,46.564739 173.586472,46.489483 
	C176.511856,46.447422 179.509598,47.651421 182.336090,48.676311 
	C182.751312,48.826874 182.664597,51.176247 182.334625,52.377670 
	C181.831757,54.208641 180.913864,55.925629 180.172211,57.691021 
	C179.783524,57.575146 179.394821,57.459267 179.006119,57.343391 
	C178.104996,54.525318 177.203888,51.707249 176.302765,48.889179 
	C175.930267,48.949020 175.557770,49.008862 175.185257,49.068703 
	C175.124344,50.106895 175.174820,51.166943 174.976395,52.178150 
	C174.677917,53.699276 174.205261,55.186226 173.806641,56.687698 
	C172.754333,55.768600 171.827774,54.573322 170.609543,54.018684 
	C169.652573,53.582996 168.279205,53.713200 167.188354,53.984402 
	C163.634995,54.867821 160.126373,55.931179 156.219589,56.570572 
	C156.781357,55.706089 157.724075,55.196331 157.903107,55.099522 
	C157.903107,52.606995 157.903107,50.323776 157.903107,48.040558 
M166.804245,49.415668 
	C166.799942,49.794575 166.792114,50.173664 166.811127,50.551395 
	C166.811615,50.561184 167.242218,50.566776 167.243011,50.556595 
	C167.272186,50.179340 167.274246,49.799992 166.804245,49.415668 
z"/>
<path fill="#CB453F" opacity="1.000000" stroke="none" 
	d="
M184.663803,41.053501 
	C183.712570,40.843693 182.232635,40.135777 181.890030,40.499401 
	C177.344788,45.323608 171.091705,41.215981 166.092575,43.566162 
	C165.755280,43.724743 164.740921,42.443138 164.135681,41.326462 
	C163.821335,40.549137 163.412796,40.276707 163.001495,40.001530 
	C162.998764,39.998787 162.989899,39.990047 162.997528,39.684219 
	C162.674744,38.186459 162.344345,36.994518 161.773041,35.349251 
	C161.370956,34.593990 161.209808,34.292057 161.048660,33.990128 
	C165.121048,33.299545 165.121048,33.299545 166.608200,39.293800 
	C166.906815,39.269489 167.441589,39.302574 167.469070,39.199886 
	C169.385574,32.038998 169.425583,32.667137 177.098007,33.673988 
	C180.003281,34.055252 182.289688,35.043507 185.255127,36.321396 
	C185.354111,38.148582 185.008957,39.601040 184.663803,41.053501 
z"/>
<path fill="#C53D36" opacity="1.000000" stroke="none" 
	d="
M154.152634,56.921829 
	C150.235397,56.605217 146.305099,56.391125 142.410751,55.894920 
	C141.514786,55.780769 140.749329,54.688797 139.911224,54.063709 
	C138.545395,53.045036 137.169174,52.040257 135.403656,50.692074 
	C135.009659,49.901608 135.009354,49.448689 135.009064,48.995766 
	C140.627579,50.704548 145.686417,47.979523 150.985275,47.064007 
	C152.713348,46.765438 154.571426,47.219303 156.280106,47.627674 
	C151.714813,50.064968 154.815811,53.919701 154.152634,56.921829 
z"/>
<path fill="#CA3C36" opacity="1.000000" stroke="none" 
	d="
M166.871124,63.065422 
	C168.293640,62.754898 169.716156,62.444374 171.373016,62.082695 
	C171.783493,63.694763 172.132614,65.065804 172.691986,67.262596 
	C175.974075,62.005882 180.233276,61.020588 185.630585,63.214355 
	C185.974991,64.243042 185.958649,64.739639 185.680359,65.346954 
	C185.193344,65.978821 184.968292,66.499977 184.743256,67.021133 
	C184.743256,67.021133 184.475433,67.020653 184.254761,66.700012 
	C183.689163,67.257164 183.344208,68.134964 182.999268,69.012756 
	C182.822296,69.791725 182.679626,71.239799 182.463272,71.250900 
	C178.097977,71.474823 173.724228,71.533676 169.455658,71.038017 
	C169.726578,68.127808 171.594070,65.351654 167.635208,63.967171 
	C167.140701,63.659939 166.959915,63.393951 166.871124,63.065422 
M171.485123,70.573753 
	C171.485123,70.573753 171.428741,70.473412 171.485123,70.573753 
z"/>
<path fill="#D2413E" opacity="1.000000" stroke="none" 
	d="
M195.981216,54.128414 
	C195.425003,55.316841 194.868790,56.505264 194.340820,57.633335 
	C190.371002,58.153629 186.834549,57.567417 187.252396,52.775040 
	C187.400558,51.075577 189.850647,49.263271 191.644394,48.123257 
	C193.000565,47.261330 194.972397,47.257439 196.690857,47.106339 
	C198.531189,46.944515 200.395691,47.057514 202.249634,47.050568 
	C201.892502,49.473351 201.838318,51.995205 201.088104,54.289459 
	C200.415390,56.346668 198.872360,57.158718 197.207428,54.115364 
	C196.873917,53.138264 196.647644,52.770550 196.421371,52.402832 
	C196.274658,52.978027 196.127945,53.553223 195.981216,54.128414 
M197.581711,49.514366 
	C197.581711,49.514366 197.477615,49.575214 197.581711,49.514366 
z"/>
<path fill="#CE3C37" opacity="1.000000" stroke="none" 
	d="
M185.942322,65.236237 
	C185.958649,64.739639 185.974991,64.243042 185.995667,63.373833 
	C190.046875,62.822456 194.093002,62.621513 198.141296,62.484989 
	C198.886871,62.459850 199.641235,62.695663 201.208344,62.936615 
	C199.713837,66.158791 198.415253,68.958588 197.116653,71.758392 
	C196.210602,71.302216 195.304535,70.846039 194.094025,70.236572 
	C192.061157,73.428551 189.254257,73.919380 186.387848,70.254555 
	C186.706604,69.250999 186.767960,68.663536 186.855087,67.766212 
	C186.568008,66.716309 186.255157,65.976273 185.942322,65.236237 
z"/>
<path fill="#CB403A" opacity="1.000000" stroke="none" 
	d="
M154.000000,69.964294 
	C151.937057,70.642242 149.874130,71.320198 147.363586,71.628716 
	C145.290268,69.760170 143.664536,68.261070 141.993744,66.720406 
	C141.993744,65.446075 141.993744,63.735199 141.993744,62.024323 
	C144.146881,62.059967 146.311020,61.975822 148.449387,62.172222 
	C149.942276,62.309338 151.399872,62.830582 152.994232,63.921989 
	C153.410156,66.430588 153.705078,68.197441 154.000000,69.964294 
z"/>
<path fill="#CC423E" opacity="1.000000" stroke="none" 
	d="
M140.124939,41.932278 
	C137.858475,42.084568 135.550354,42.566772 133.338425,42.287350 
	C131.486389,42.053391 128.986298,41.410728 128.145081,40.081078 
	C127.030975,38.320068 127.252960,35.713764 126.852394,33.162807 
	C130.895630,33.905571 133.664108,34.414162 136.772583,35.294075 
	C137.116653,36.710945 137.120712,37.756485 137.124786,38.802025 
	C137.702301,38.582821 138.279831,38.363617 138.910004,38.417828 
	C139.248871,39.143326 139.535065,39.595406 139.864700,40.362869 
	C139.980408,41.096264 140.052673,41.514271 140.124939,41.932278 
z"/>
<path fill="#BF433E" opacity="1.000000" stroke="none" 
	d="
M125.083611,70.001373 
	C124.681709,70.104149 123.960777,70.361992 123.924385,70.287117 
	C122.905579,68.190994 121.956047,66.061203 120.906204,63.740421 
	C125.124458,63.135052 128.712219,62.620167 132.654510,62.443840 
	C133.947784,65.789322 137.141312,68.552414 134.005829,71.999931 
	C133.252731,72.002716 132.499649,72.005493 131.063263,71.848663 
	C128.925858,69.567123 127.471733,67.445206 126.017616,65.323280 
	C125.706284,65.447556 125.394943,65.571831 125.083611,65.696106 
	C125.083611,67.131195 125.083611,68.566284 125.083611,70.001373 
z"/>
<path fill="#CD3330" opacity="1.000000" stroke="none" 
	d="
M134.283875,72.278984 
	C137.141312,68.552414 133.947784,65.789322 132.991516,62.418762 
	C133.732620,62.037674 134.491226,62.020218 135.635025,62.378281 
	C136.825089,63.470570 137.629959,64.187340 138.434845,64.904114 
	C139.288757,63.939987 140.142670,62.975864 140.996582,62.011742 
	C140.996582,62.011742 141.495316,62.011719 141.744537,62.018021 
	C141.993744,63.735199 141.993744,65.446075 141.993744,66.720406 
	C143.664536,68.261070 145.290268,69.760170 146.960587,71.626900 
	C142.857422,72.182358 138.709656,72.370201 134.283875,72.278984 
z"/>
<path fill="#D0403A" opacity="1.000000" stroke="none" 
	d="
M154.352478,70.015076 
	C153.705078,68.197441 153.410156,66.430588 153.114716,64.271896 
	C155.312576,63.858959 157.510986,63.837860 159.831726,64.183601 
	C159.734039,64.985756 159.514023,65.421066 158.908508,65.905319 
	C157.727982,66.581245 156.932968,67.208229 156.137970,67.835213 
	C156.549622,68.326714 156.961273,68.818207 157.372925,69.309700 
	C158.867386,68.071243 160.361832,66.832787 161.937042,65.249588 
	C166.230331,61.953056 166.594406,65.980598 167.788666,68.395233 
	C167.075821,69.089645 166.538696,69.572685 166.001556,70.055725 
	C162.239151,73.548553 158.471558,71.245415 154.352478,70.015076 
z"/>
<path fill="#F8AEA5" opacity="1.000000" stroke="none" 
	d="
M160.625519,33.985409 
	C161.209808,34.292057 161.370956,34.593990 161.376770,35.255085 
	C160.826782,36.067886 160.432129,36.521526 159.815277,37.048985 
	C159.403824,37.431232 159.214554,37.739658 158.987747,38.404011 
	C159.587936,39.492058 160.225677,40.224174 161.097977,40.974159 
	C161.332535,40.992027 161.800308,41.042286 161.884537,41.019054 
	C161.968765,40.995823 162.142746,40.979393 162.142746,40.979393 
	C157.795578,45.363987 155.900833,38.386181 152.182495,39.857327 
	C152.261185,39.386833 152.339890,38.916336 152.418579,38.445843 
	C153.640625,38.726315 154.862671,39.006790 156.084732,39.287266 
	C155.866837,38.909946 155.648956,38.532623 155.431076,38.155300 
	C157.021500,36.763763 158.611938,35.372227 160.625519,33.985409 
z"/>
<path fill="#FB9E99" opacity="1.000000" stroke="none" 
	d="
M154.413330,56.915688 
	C154.815811,53.919701 151.714813,50.064968 156.608093,47.866028 
	C157.026031,47.805748 157.457687,47.949596 157.680389,47.995079 
	C157.903107,50.323776 157.903107,52.606995 157.903107,55.099522 
	C157.724075,55.196331 156.781357,55.706089 155.775177,56.518005 
	C155.365814,56.849960 155.019928,56.879753 154.413330,56.915688 
z"/>
<path fill="#CB453F" opacity="1.000000" stroke="none" 
	d="
M186.996964,33.855164 
	C190.438904,32.032932 192.196152,32.881969 191.999161,36.961617 
	C191.912903,38.748039 191.970367,40.542351 191.833450,42.323154 
	C191.824753,42.436317 190.696136,42.463375 190.002609,41.807243 
	C189.286774,38.728516 188.656830,36.373035 187.767639,33.988243 
	C187.337906,33.924343 187.167435,33.889751 186.996964,33.855164 
z"/>
<path fill="#CD3330" opacity="1.000000" stroke="none" 
	d="
M125.410431,70.061295 
	C125.083611,68.566284 125.083611,67.131195 125.083611,65.696106 
	C125.394943,65.571831 125.706284,65.447556 126.017616,65.323280 
	C127.471733,67.445206 128.925858,69.567123 130.686829,71.857407 
	C129.241547,71.390915 127.489403,70.756065 125.410431,70.061295 
z"/>
<path fill="#FBA59E" opacity="1.000000" stroke="none" 
	d="
M167.964386,68.183868 
	C166.594406,65.980598 166.230331,61.953056 161.618744,65.309601 
	C160.577789,65.761688 159.935898,65.809036 159.294006,65.856377 
	C159.514023,65.421066 159.734039,64.985756 160.092712,64.345161 
	C162.184433,63.754658 164.137497,63.369438 166.480850,63.024818 
	C166.959915,63.393951 167.140701,63.659939 167.736969,64.285019 
	C168.028442,65.865715 167.996414,67.024796 167.964386,68.183868 
z"/>
<path fill="#AE423B" opacity="1.000000" stroke="none" 
	d="
M134.768646,48.886520 
	C135.009354,49.448689 135.009659,49.901608 135.025970,50.694473 
	C135.041992,52.636307 135.041992,54.238197 135.041992,56.391354 
	C133.377289,55.386608 132.156845,54.649998 131.008453,53.956882 
	C132.360168,51.967728 133.444199,50.372501 134.768646,48.886520 
z"/>
<path fill="#CB403A" opacity="1.000000" stroke="none" 
	d="
M140.689682,61.875481 
	C140.142670,62.975864 139.288757,63.939987 138.434845,64.904114 
	C137.629959,64.187340 136.825089,63.470570 136.014099,62.379593 
	C137.466263,61.916660 138.924530,61.827942 140.689682,61.875481 
z"/>
<path fill="#A04841" opacity="1.000000" stroke="none" 
	d="
M146.088379,33.044495 
	C146.614304,33.210255 147.140228,33.376015 147.832886,34.213516 
	C148.001450,37.231598 148.003281,39.577950 148.005096,41.924297 
	C147.834839,41.923981 147.664581,41.923660 147.243225,41.600136 
	C146.762238,40.512917 146.532364,39.748913 146.268402,38.564323 
	C146.173981,36.740929 146.113663,35.338116 146.061554,33.712578 
	C146.069763,33.489857 146.088379,33.044495 146.088379,33.044495 
z"/>
<path fill="#B44A44" opacity="1.000000" stroke="none" 
	d="
M167.788666,68.395233 
	C167.996414,67.024796 168.028442,65.865715 167.958710,64.388794 
	C171.594070,65.351654 169.726578,68.127808 169.283768,70.718246 
	C168.219223,70.678825 167.430038,70.371513 166.321198,70.059967 
	C166.538696,69.572685 167.075821,69.089645 167.788666,68.395233 
z"/>
<path fill="#CE3F3A" opacity="1.000000" stroke="none" 
	d="
M145.788727,33.044838 
	C146.088379,33.044495 146.069763,33.489857 145.695343,33.894745 
	C145.159409,36.209530 144.997879,38.119423 144.836349,40.029320 
	C144.147659,39.703018 143.458954,39.376717 142.445648,39.032303 
	C142.121017,39.014187 142.070648,38.933727 142.224762,38.622047 
	C142.740524,37.206573 143.102173,36.102776 143.463806,34.998974 
	C144.138885,34.347713 144.813980,33.696449 145.788727,33.044838 
z"/>
<path fill="#E58A8C" opacity="1.000000" stroke="none" 
	d="
M138.857346,38.144413 
	C138.279831,38.363617 137.702301,38.582821 137.124786,38.802025 
	C137.120712,37.756485 137.116653,36.710945 137.119873,35.347763 
	C137.409454,34.547123 137.691727,34.064129 137.974014,33.581139 
	C138.272064,33.883381 138.570099,34.185623 138.977997,34.882240 
	C139.087830,35.276619 139.033844,35.575668 138.993500,36.003803 
	C138.921204,37.002762 138.889282,37.573589 138.857346,38.144413 
z"/>
<path fill="#FEAFA6" opacity="1.000000" stroke="none" 
	d="
M188.026886,34.017555 
	C188.656830,36.373035 189.286774,38.728516 189.932312,41.471123 
	C189.535965,41.892132 189.124054,41.926006 188.378311,41.480652 
	C188.038620,38.673466 188.032745,36.345512 188.026886,34.017555 
z"/>
<path fill="#BE4942" opacity="1.000000" stroke="none" 
	d="
M187.767639,33.988247 
	C188.032745,36.345512 188.038620,38.673466 188.070160,41.436066 
	C187.200211,42.004089 186.304581,42.137463 185.692627,42.018822 
	C186.313431,39.177334 186.650543,36.587860 186.987656,33.998383 
	C186.987656,33.998383 186.970535,33.926067 186.983749,33.890617 
	C187.167435,33.889751 187.337906,33.924343 187.767639,33.988247 
z"/>
<path fill="#F8B3AD" opacity="1.000000" stroke="none" 
	d="
M186.657440,34.074821 
	C186.650543,36.587860 186.313431,39.177334 185.591217,41.711105 
	C185.206131,41.655407 184.986343,41.308441 184.825073,41.180969 
	C185.008957,39.601040 185.354111,38.148582 185.596375,36.330902 
	C185.771378,35.360867 186.049301,34.756062 186.657440,34.074821 
z"/>
<path fill="#FFDCD7" opacity="1.000000" stroke="none" 
	d="
M148.362030,41.785248 
	C148.003281,39.577950 148.001450,37.231598 147.994568,34.443996 
	C148.573471,34.142559 149.157471,34.282375 149.843979,34.968029 
	C149.962402,35.688660 149.978302,35.863449 149.994186,36.038239 
	C149.569107,37.907558 149.144043,39.776878 148.362030,41.785248 
z"/>
<path fill="#FFE1DB" opacity="1.000000" stroke="none" 
	d="
M144.904327,40.338036 
	C144.997879,38.119423 145.159409,36.209530 145.687134,34.117470 
	C146.113663,35.338116 146.173981,36.740929 146.149719,38.917038 
	C146.041153,40.433174 146.017166,41.176018 145.993179,41.918858 
	C145.652893,41.494820 145.312607,41.070786 144.904327,40.338036 
z"/>
<path fill="#BB4640" opacity="1.000000" stroke="none" 
	d="
M139.033844,35.575668 
	C139.033844,35.575668 139.087830,35.276619 139.112885,35.126598 
	C139.796875,34.980389 140.455826,34.984203 141.391312,35.271942 
	C141.408279,36.521946 141.148727,37.488018 140.594971,38.418209 
	C139.878464,37.446774 139.456146,36.511219 139.033844,35.575668 
z"/>
<path fill="#FEB9B4" opacity="1.000000" stroke="none" 
	d="
M138.993500,36.003803 
	C139.456146,36.511219 139.878464,37.446774 140.915146,38.477352 
	C141.709885,38.692825 141.890259,38.813274 142.070648,38.933727 
	C142.070648,38.933727 142.121017,39.014187 142.161362,38.989098 
	C141.984970,39.238987 141.768250,39.513969 140.999969,39.900780 
	C140.239365,40.024239 140.030319,40.035866 139.821259,40.047485 
	C139.535065,39.595406 139.248871,39.143326 138.910004,38.417828 
	C138.889282,37.573589 138.921204,37.002762 138.993500,36.003803 
z"/>
<path fill="#F3938E" opacity="1.000000" stroke="none" 
	d="
M185.680359,65.346954 
	C186.255157,65.976273 186.568008,66.716309 186.648041,67.896713 
	C186.181503,68.574066 186.005249,68.848045 185.886475,69.159019 
	C185.558716,68.646690 185.230957,68.134354 184.823227,67.321579 
	C184.968292,66.499977 185.193344,65.978821 185.680359,65.346954 
z"/>
<path fill="#E06058" opacity="1.000000" stroke="none" 
	d="
M142.224762,38.622047 
	C141.890259,38.813274 141.709885,38.692825 141.209351,38.513237 
	C141.148727,37.488018 141.408279,36.521946 141.721649,35.252075 
	C142.058289,34.903015 142.341095,34.857750 143.043854,34.905731 
	C143.102173,36.102776 142.740524,37.206573 142.224762,38.622047 
z"/>
<path fill="#FDAFA3" opacity="1.000000" stroke="none" 
	d="
M150.070892,36.345505 
	C149.978302,35.863449 149.962402,35.688660 149.977783,35.252476 
	C150.931488,35.512924 151.853897,36.034763 152.776291,36.556602 
	C152.414322,36.965572 152.052338,37.374542 151.690353,37.783512 
	C151.176102,37.406597 150.661850,37.029686 150.070892,36.345505 
z"/>
<path fill="#FFCEC9" opacity="1.000000" stroke="none" 
	d="
M183.287460,68.889175 
	C183.344208,68.134964 183.689163,67.257164 184.120850,66.698807 
	C183.996948,67.600693 183.786301,68.183151 183.287460,68.889175 
z"/>
<path fill="#C1736C" opacity="1.000000" stroke="none" 
	d="
M146.241745,41.939514 
	C146.017166,41.176018 146.041153,40.433174 146.183807,39.337620 
	C146.532364,39.748913 146.762238,40.512917 146.988312,41.584702 
	C146.984528,41.892475 146.490311,41.960175 146.241745,41.939514 
z"/>
<path fill="#B74746" opacity="1.000000" stroke="none" 
	d="
M163.004242,40.004272 
	C163.412796,40.276707 163.821335,40.549137 164.059280,40.982117 
	C163.888672,41.142666 163.437225,41.064255 163.216339,40.784004 
	C162.995453,40.503750 163.004242,40.004272 163.004242,40.004272 
z"/>
<path fill="#FAA59C" opacity="1.000000" stroke="none" 
	d="
M196.246521,54.112198 
	C196.127945,53.553223 196.274658,52.978027 196.421371,52.402832 
	C196.647644,52.770550 196.873917,53.138264 197.066483,53.853966 
	C196.859116,54.166626 196.685471,54.131302 196.246521,54.112198 
z"/>
<path fill="#F7A5A3" opacity="1.000000" stroke="none" 
	d="
M185.907166,69.362885 
	C186.005249,68.848045 186.181503,68.574066 186.622284,68.206589 
	C186.767960,68.663536 186.706604,69.250999 186.326996,69.903473 
	C186.008743,69.968498 185.927856,69.566742 185.907166,69.362885 
z"/>
<path fill="#FFCFC9" opacity="1.000000" stroke="none" 
	d="
M139.864700,40.362873 
	C140.030319,40.035866 140.239365,40.024239 140.762527,40.016548 
	C140.940033,40.584423 140.803436,41.148357 140.395905,41.822289 
	C140.052673,41.514271 139.980408,41.096264 139.864700,40.362873 
z"/>
<path fill="#CB453F" opacity="1.000000" stroke="none" 
	d="
M163.001495,40.001530 
	C163.004242,40.004272 162.995453,40.503750 162.989258,40.753586 
	C162.983063,41.003422 162.560760,41.000107 162.351746,40.989750 
	C162.142746,40.979393 161.968765,40.995823 161.976471,40.763931 
	C162.036102,40.358967 162.088043,40.185902 162.352554,40.010666 
	C162.565125,40.008499 162.989899,39.990047 162.989899,39.990047 
	C162.989899,39.990047 162.998764,39.998787 163.001495,40.001530 
z"/>
<path fill="#E6E6E6" opacity="1.000000" stroke="none" 
	d="
M31.129932,21.906055 
	C29.508310,17.499077 28.005085,13.464834 26.501860,9.430593 
	C26.762850,9.107601 27.023842,8.784609 27.284832,8.461617 
	C28.453230,9.532673 30.164570,10.386866 30.694271,11.713032 
	C32.778816,16.931936 34.491676,22.299303 36.934902,27.686907 
	C38.662277,21.659138 44.777710,16.605690 40.260349,9.144011 
	C41.646725,9.144011 42.923569,9.144011 43.921410,9.144011 
	C46.229004,15.568582 48.447826,21.746008 50.918491,28.624596 
	C54.489094,21.723576 55.050076,14.261024 59.105591,8.552432 
	C59.620384,8.800565 60.135174,9.048697 60.649967,9.296831 
	C57.467453,18.036148 54.284939,26.775465 50.788700,36.376297 
	C48.287815,29.889585 46.140427,24.319761 43.645866,17.849442 
	C41.168968,24.507477 39.057701,30.182671 36.692913,36.539349 
	C34.665546,31.229235 32.956936,26.754013 31.129932,21.906055 
z"/>
<path fill="#D5D5D5" opacity="1.000000" stroke="none" 
	d="
M69.061234,31.829773 
	C69.062088,24.040644 69.062088,16.734137 69.062088,8.115354 
	C71.255020,9.457928 73.149292,10.129622 74.351334,11.437515 
	C79.742401,17.303318 84.936523,23.350115 90.745567,29.949455 
	C90.745567,22.652895 90.745567,16.001993 90.745567,7.972871 
	C92.307808,9.309888 93.470749,9.837791 93.478188,10.381524 
	C93.593414,18.792645 93.558678,27.205816 93.558678,37.049644 
	C86.011780,28.809156 79.304520,21.485468 72.008698,13.519128 
	C72.008698,21.482630 72.008698,28.624634 72.008698,35.766640 
	C71.444885,35.927418 70.881065,36.088200 70.317253,36.248981 
	C69.898293,34.936787 69.479332,33.624592 69.061234,31.829773 
z"/>
<path fill="#EEEEEE" opacity="1.000000" stroke="none" 
	d="
M51.801037,84.960800 
	C51.800949,80.462189 51.800949,76.441811 51.800949,72.421432 
	C52.375904,72.457146 52.950855,72.492851 53.525810,72.528564 
	C53.525810,81.453354 53.525810,90.378143 53.525810,99.875648 
	C46.497700,92.158699 39.665302,84.656639 32.012413,76.253662 
	C32.012413,84.684258 32.012413,92.096573 32.012413,99.508896 
	C31.519350,99.518188 31.026287,99.527489 30.533224,99.536789 
	C30.533224,90.585327 30.533224,81.633873 30.533224,71.790779 
	C39.101208,77.191093 43.586880,86.491310 51.801125,93.343513 
	C51.801125,90.255043 51.801125,87.847046 51.801037,84.960800 
z"/>
<path fill="#C5C5C5" opacity="1.000000" stroke="none" 
	d="
M76.033997,97.736740 
	C73.501648,98.702530 70.939621,99.396439 68.333809,99.664314 
	C65.883942,99.916168 63.387848,99.718315 60.580353,99.718315 
	C60.580353,90.540367 60.580353,81.664467 60.580353,73.163376 
	C65.111816,73.163376 69.528496,73.163376 73.945175,73.163376 
	C73.927589,73.623207 73.909996,74.083046 73.892403,74.542877 
	C70.711372,74.542877 67.530334,74.542877 64.039536,74.542877 
	C64.039536,77.445160 64.039536,79.871689 64.039536,82.626907 
	C67.244987,82.946213 70.666489,83.287048 74.087990,83.627876 
	C74.019478,84.177505 73.950958,84.727127 73.882439,85.276756 
	C70.723755,85.276756 67.565063,85.276756 64.191544,85.276756 
	C64.191544,89.237915 64.191544,92.847343 64.191544,97.278847 
	C68.166382,97.278847 72.075790,97.278847 76.033997,97.736740 
z"/>
<path fill="#E6E6E6" opacity="1.000000" stroke="none" 
	d="
M30.746510,41.781944 
	C35.010578,46.660248 34.986729,48.368477 30.766113,52.651661 
	C34.620831,55.049599 37.209259,58.322411 35.074200,62.914333 
	C32.087612,69.337646 25.964130,67.563889 20.301537,67.919975 
	C20.301537,58.913193 20.301537,50.066525 20.301537,40.541576 
	C23.658291,40.880325 27.027243,41.220306 30.746510,41.781944 
M23.310717,55.093014 
	C23.310717,58.638939 23.310717,62.184864 23.310717,67.571632 
	C27.012247,65.523033 29.888758,64.510788 31.869371,62.579681 
	C32.799129,61.673157 32.721382,57.906197 31.850533,57.332508 
	C29.509260,55.790146 26.495045,55.269287 23.310717,55.093014 
M30.965881,47.489632 
	C30.517139,42.577110 26.977642,42.688690 23.277050,42.700905 
	C23.277050,45.894772 23.277050,48.943035 23.277050,52.073475 
	C26.679531,52.129868 29.973185,52.554405 30.965881,47.489632 
z"/>
<path fill="#F5F5F5" opacity="1.000000" stroke="none" 
	d="
M43.010521,56.637405 
	C43.414700,62.704277 46.049255,65.761215 50.517990,65.804848 
	C55.068314,65.849274 57.860344,62.684460 57.966312,57.101082 
	C58.066616,51.816261 57.987869,46.528038 57.987869,41.241314 
	C58.396732,41.009415 58.805599,40.777515 59.214462,40.545620 
	C59.809353,41.498253 60.892990,42.438290 60.917919,43.405617 
	C61.055115,48.729767 61.207230,54.080322 60.824890,59.383659 
	C60.430294,64.856964 56.299828,68.044968 50.512577,68.008507 
	C44.700661,67.971893 40.446339,64.738464 40.139519,59.393105 
	C39.789272,53.291180 40.058453,47.153698 40.058453,40.943539 
	C43.010963,41.672043 43.010963,41.672043 43.010521,56.637405 
z"/>
<path fill="#E5E5E5" opacity="1.000000" stroke="none" 
	d="
M20.397343,21.665997 
	C24.800680,23.875622 26.238684,27.310621 24.805117,31.404854 
	C23.118160,36.222763 18.481340,36.371399 14.353149,36.506546 
	C12.003960,36.583454 8.841559,37.284248 7.435070,33.505478 
	C10.566616,33.839268 13.224630,34.696083 15.604215,34.204666 
	C17.715420,33.768669 20.640574,32.161938 21.132816,30.469051 
	C21.603645,28.849810 19.781528,26.095421 18.270777,24.499098 
	C16.735281,22.876631 14.350897,22.056145 12.335041,20.890011 
	C9.211640,19.083183 7.065438,16.632841 7.933094,12.785036 
	C8.860237,8.673416 12.262541,7.436215 15.863951,7.220980 
	C18.093056,7.087759 20.379833,7.919540 22.640720,8.318132 
	C22.527822,8.857756 22.414925,9.397379 22.302027,9.937003 
	C20.427227,9.641109 18.385567,8.742700 16.720421,9.203843 
	C14.698936,9.763671 12.269784,11.111092 11.424887,12.815617 
	C10.914909,13.844461 12.744766,16.550962 14.128806,17.866594 
	C15.771349,19.427956 18.064476,20.304907 20.397343,21.665997 
z"/>
<path fill="#EBEBEB" opacity="1.000000" stroke="none" 
	d="
M70.104767,53.262554 
	C70.147522,57.237503 70.300583,61.216640 70.149971,65.184250 
	C70.115379,66.095650 69.037300,66.967445 68.439453,67.857475 
	C67.995651,66.990913 67.177437,66.129044 67.166489,65.257050 
	C67.066887,57.325710 67.108047,49.392605 67.108047,41.465389 
	C74.875687,39.756363 79.940346,40.923431 80.898766,44.985672 
	C81.869118,49.098423 80.342712,52.127445 75.300674,52.994225 
	C74.398590,52.687004 74.166481,52.455208 74.354507,52.014931 
	C78.102829,50.473190 79.404785,47.603336 77.435776,44.835400 
	C76.254311,43.174553 73.067604,42.940166 70.093033,41.800705 
	C70.093033,46.208309 70.093033,49.002701 70.079773,52.163586 
	C70.079262,52.774239 70.092010,53.018394 70.104767,53.262554 
z"/>
<path fill="#E2E2E2" opacity="1.000000" stroke="none" 
	d="
M70.419876,53.332367 
	C70.092010,53.018394 70.079262,52.774239 70.454102,52.294716 
	C71.896957,52.089622 72.952232,52.119904 74.007507,52.150185 
	C74.166481,52.455208 74.398590,52.687004 74.926743,52.957264 
	C78.490257,57.884106 81.830849,62.699257 85.171440,67.514404 
	C77.831963,65.493416 75.876099,57.783562 70.419876,53.332367 
z"/>
<path fill="#F8F8F8" opacity="1.000000" stroke="none" 
	d="
M61.826488,28.960793 
	C61.826447,24.655987 61.826447,20.845160 61.826447,17.034330 
	C62.320042,17.051064 62.813637,17.067795 63.307232,17.084528 
	C63.307232,23.361404 63.307232,29.638281 63.307232,35.915157 
	C62.813663,35.928059 62.320099,35.940960 61.826530,35.953865 
	C61.826530,33.787498 61.826530,31.621134 61.826488,28.960793 
z"/>
<path fill="#3F3F3F" opacity="1.000000" stroke="none" 
	d="
M90.320480,82.524513 
	C91.523521,83.664452 92.347656,84.807785 93.171783,85.951118 
	C92.971481,86.282974 92.771172,86.614830 92.570869,86.946686 
	C90.694130,86.352303 88.748611,85.908478 86.971245,85.096558 
	C86.149796,84.721313 85.521408,83.695045 85.086388,82.823708 
	C84.929977,82.510429 85.597260,81.785927 85.888641,81.249100 
	C86.688232,81.816116 87.432991,82.507347 88.311661,82.895195 
	C88.721146,83.075951 89.390182,82.668655 90.320480,82.524513 
z"/>
<path fill="#DA3029" opacity="1.000000" stroke="none" 
	d="
M167.042114,49.418297 
	C167.274246,49.799992 167.272186,50.179340 167.243011,50.556595 
	C167.242218,50.566776 166.811615,50.561184 166.811127,50.551395 
	C166.792114,50.173664 166.799942,49.794575 167.042114,49.418297 
z"/>
<path fill="#B74746" opacity="1.000000" stroke="none" 
	d="
M162.997528,39.684219 
	C162.989899,39.990047 162.565125,40.008499 162.302979,39.706161 
	C161.767349,38.917019 161.493851,38.430214 161.114349,37.671974 
	C160.684738,37.258751 160.361099,37.116959 160.037476,36.975166 
	C160.432129,36.521526 160.826782,36.067886 161.617691,35.708412 
	C162.344345,36.994518 162.674744,38.186459 162.997528,39.684219 
z"/>
<path fill="#B44A44" opacity="1.000000" stroke="none" 
	d="
M171.456940,70.523582 
	C171.428741,70.473412 171.485123,70.573753 171.456940,70.523582 
z"/>
<path fill="#DA3029" opacity="1.000000" stroke="none" 
	d="
M197.529663,49.544792 
	C197.477615,49.575214 197.581711,49.514366 197.529663,49.544792 
z"/>
<path fill="#CB403A" opacity="1.000000" stroke="none" 
	d="
M158.908508,65.905319 
	C159.935898,65.809036 160.577789,65.761688 161.537994,65.654343 
	C160.361832,66.832787 158.867386,68.071243 157.372925,69.309700 
	C156.961273,68.818207 156.549622,68.326714 156.137970,67.835213 
	C156.932968,67.208229 157.727982,66.581245 158.908508,65.905319 
z"/>
<path fill="#B83940" opacity="1.000000" stroke="none" 
	d="
M160.863419,40.956299 
	C160.225677,40.224174 159.587936,39.492058 159.233795,38.361874 
	C159.517380,37.963810 160.014984,37.998169 160.166595,38.278999 
	C160.499924,39.358650 160.681671,40.157475 160.863419,40.956299 
z"/>
<path fill="#FBBBBB" opacity="1.000000" stroke="none" 
	d="
M161.097977,40.974163 
	C160.681671,40.157475 160.499924,39.358650 160.467560,38.257793 
	C160.818069,37.951641 161.019211,37.947521 161.220352,37.943405 
	C161.493851,38.430214 161.767349,38.917019 162.090424,39.708328 
	C162.088043,40.185902 162.036102,40.358967 161.892242,40.787163 
	C161.800308,41.042286 161.332535,40.992027 161.097977,40.974163 
z"/>
<path fill="#FFD1CE" opacity="1.000000" stroke="none" 
	d="
M161.114349,37.671974 
	C161.019211,37.947521 160.818069,37.951641 160.315948,37.976967 
	C160.014984,37.998169 159.517380,37.963810 159.271332,38.005947 
	C159.214554,37.739658 159.403824,37.431232 159.815277,37.048988 
	C160.361099,37.116959 160.684738,37.258751 161.114349,37.671974 
z"/>
<path fill="#131313" opacity="1.000000" stroke="none" 
	d="
M23.529362,54.717941 
	C26.495045,55.269287 29.509260,55.790146 31.850533,57.332508 
	C32.721382,57.906197 32.799129,61.673157 31.869371,62.579681 
	C29.888758,64.510788 27.012247,65.523033 23.310717,67.571632 
	C23.310717,62.184864 23.310717,58.638939 23.529362,54.717941 
z"/>
<path fill="#0B0B0B" opacity="1.000000" stroke="none" 
	d="
M30.960848,47.900429 
	C29.973185,52.554405 26.679531,52.129868 23.277050,52.073475 
	C23.277050,48.943035 23.277050,45.894772 23.277050,42.700905 
	C26.977642,42.688690 30.517139,42.577110 30.960848,47.900429 
z"/>
<path fill="#151515" opacity="1.000000" stroke="none" 
	d="
M74.354507,52.014931 
	C72.952232,52.119904 71.896957,52.089622 70.467361,51.928215 
	C70.093033,49.002701 70.093033,46.208309 70.093033,41.800705 
	C73.067604,42.940166 76.254311,43.174553 77.435776,44.835400 
	C79.404785,47.603336 78.102829,50.473190 74.354507,52.014931 
z"/>
</svg>